<svg width="40" height="39" viewBox="0 0 40 39" fill="none" xmlns="http://www.w3.org/2000/svg">
    <path d="M33 0H7C5.27609 0 3.62279 0.68482 2.40381 1.90381C1.18482 3.12279 0.5 4.77609 0.5 6.5V32.5C0.5 34.2239 1.18482 35.8772 2.40381 37.0962C3.62279 38.3152 5.27609 39 7 39H33C34.7239 39 36.3772 38.3152 37.5962 37.0962C38.8152 35.8772 39.5 34.2239 39.5 32.5V6.5C39.5 4.77609 38.8152 3.12279 37.5962 1.90381C36.3772 0.68482 34.7239 0 33 0ZM11.3333 8.66667C11.9761 8.66667 12.6045 8.85728 13.1389 9.21439C13.6734 9.57151 14.09 10.0791 14.3359 10.6729C14.5819 11.2668 14.6463 11.9203 14.5209 12.5507C14.3955 13.1811 14.086 13.7602 13.6314 14.2148C13.1769 14.6693 12.5978 14.9788 11.9674 15.1042C11.3369 15.2296 10.6835 15.1653 10.0896 14.9193C9.49575 14.6733 8.98817 14.2567 8.63106 13.7223C8.27394 13.1878 8.08333 12.5595 8.08333 11.9167C8.08333 11.0547 8.42574 10.2281 9.03524 9.61857C9.64473 9.00908 10.4714 8.66667 11.3333 8.66667ZM35.1667 32.1317C35.2145 32.7549 35.0133 33.3717 34.6072 33.8469C34.2011 34.3221 33.6231 34.6169 33 34.6667H7L23.4017 19.89C23.6771 19.6388 24.0364 19.4995 24.4092 19.4995C24.7819 19.4995 25.1413 19.6388 25.4167 19.89L35.1667 29.5967V32.1317Z" fill="#B9B9B9"/>
</svg>
