<svg width="18" height="19" viewBox="0 0 18 19" fill="none" xmlns="http://www.w3.org/2000/svg">
<path d="M16.4663 3.73333H12.7329V2.8C12.7329 2.05739 12.4379 1.3452 11.9128 0.820101C11.3877 0.294999 10.6755 0 9.93294 0H8.06628C7.32367 0 6.61148 0.294999 6.08638 0.820101C5.56127 1.3452 5.26628 2.05739 5.26628 2.8V3.73333H1.53294C1.28541 3.73333 1.04801 3.83167 0.872976 4.0067C0.697942 4.18173 0.599609 4.41913 0.599609 4.66667C0.599609 4.9142 0.697942 5.1516 0.872976 5.32663C1.04801 5.50167 1.28541 5.6 1.53294 5.6H2.46628V15.8667C2.46628 16.6093 2.76128 17.3215 3.28638 17.8466C3.81148 18.3717 4.52367 18.6667 5.26628 18.6667H12.7329C13.4755 18.6667 14.1877 18.3717 14.7128 17.8466C15.2379 17.3215 15.5329 16.6093 15.5329 15.8667V5.6H16.4663C16.7138 5.6 16.9512 5.50167 17.1262 5.32663C17.3013 5.1516 17.3996 4.9142 17.3996 4.66667C17.3996 4.41913 17.3013 4.18173 17.1262 4.0067C16.9512 3.83167 16.7138 3.73333 16.4663 3.73333ZM7.13294 2.8C7.13294 2.55246 7.23128 2.31507 7.40631 2.14003C7.58134 1.965 7.81874 1.86667 8.06628 1.86667H9.93294C10.1805 1.86667 10.4179 1.965 10.5929 2.14003C10.7679 2.31507 10.8663 2.55246 10.8663 2.8V3.73333H7.13294V2.8ZM13.6663 15.8667C13.6663 16.1142 13.5679 16.3516 13.3929 16.5266C13.2179 16.7017 12.9805 16.8 12.7329 16.8H5.26628C5.01874 16.8 4.78134 16.7017 4.60631 16.5266C4.43128 16.3516 4.33294 16.1142 4.33294 15.8667V5.6H13.6663V15.8667Z" fill="#C5C5C5"/>
</svg>
