<svg width="32" height="23" viewBox="0 0 32 23" fill="none" xmlns="http://www.w3.org/2000/svg">
<g clip-path="url(#clip0_136_936)">
<path d="M30.8154 4.32061C30.6375 3.6635 30.2907 3.06443 29.8094 2.58307C29.328 2.1017 28.729 1.75482 28.0719 1.57698C25.6662 0.920898 15.9843 0.920898 15.9843 0.920898C15.9843 0.920898 6.30187 0.940758 3.89622 1.59684C3.2391 1.77469 2.64004 2.12159 2.1587 2.60298C1.67735 3.08437 1.33051 3.68345 1.15272 4.34059C0.425066 8.61495 0.142797 15.1281 1.1727 19.2315C1.35051 19.8886 1.69736 20.4877 2.1787 20.969C2.66005 21.4504 3.2591 21.7973 3.9162 21.9751C6.32185 22.6312 16.004 22.6312 16.004 22.6312C16.004 22.6312 25.6861 22.6312 28.0916 21.9751C28.7487 21.7973 29.3478 21.4504 29.8292 20.969C30.3105 20.4877 30.6574 19.8886 30.8352 19.2315C31.6027 14.9511 31.8392 8.44203 30.8154 4.32073V4.32061Z" fill="#FF0000"/>
<path d="M12.9023 16.4284L20.9342 11.7762L12.9023 7.12402V16.4284Z" fill="white"/>
</g>
<defs>
<clipPath id="clip0_136_936">
<rect width="31" height="21.7969" fill="white" transform="translate(0.5 0.920898)"/>
</clipPath>
</defs>
</svg>
